# xmcd
#
# Track frame offsets:
#	150
#	13455
#	22735
#	37842
#	52137
#	59407
#
# Disc length: 938 seconds
#
# Revision: 1
# Processed by: cddbd v1.5.2PL0 Copyright (c) Steve Scherf et al.
# Submitted via: EasyCDDAExtractor 16.0.6.1
#
DISCID=4803a806
DTITLE=Jim Reeves - The Great Jim Reeves
DYEAR=1993
DGENRE=Oldies
TTITLE0=How's the world treating you
TTITLE1=Home
TTITLE2=Making believe
TTITLE3=The higway to nowhere
TTITLE4=Everywhere you go
TTITLE5=I love you more
EXTD=
EXTT0=
EXTT1=
EXTT2=
EXTT3=
EXTT4=
EXTT5=
PLAYORDER=
